<mxfile host="Electron" modified="2023-12-25T04:56:43.689Z" agent="Mozilla/5.0 (Windows NT 10.0; Win64; x64) AppleWebKit/537.36 (KHTML, like Gecko) draw.io/22.1.2 Chrome/114.0.5735.289 Electron/25.9.4 Safari/537.36" etag="OXwc8XE0z6H6iAHBaTpr" version="22.1.2" type="device">
  <diagram name="Page-1" id="exn3ggoVIKOQM3i5nKGH">
    <mxGraphModel dx="2635" dy="1960" grid="0" gridSize="10" guides="1" tooltips="1" connect="1" arrows="1" fold="1" page="1" pageScale="1" pageWidth="850" pageHeight="1100" math="0" shadow="0">
      <root>
        <mxCell id="0" />
        <mxCell id="1" parent="0" />
        <mxCell id="nF-iXHHiCRlv0W8M6ZpC-1" value="" style="rounded=0;whiteSpace=wrap;html=1;" parent="1" vertex="1">
          <mxGeometry x="40" y="40" width="800" height="450" as="geometry" />
        </mxCell>
        <mxCell id="nF-iXHHiCRlv0W8M6ZpC-5" value="LOGIN" style="rounded=0;whiteSpace=wrap;html=1;" parent="1" vertex="1">
          <mxGeometry x="355" y="200" width="170" height="50" as="geometry" />
        </mxCell>
        <mxCell id="nF-iXHHiCRlv0W8M6ZpC-22" value="" style="rounded=0;whiteSpace=wrap;html=1;" parent="1" vertex="1">
          <mxGeometry x="40" y="1080" width="800" height="450" as="geometry" />
        </mxCell>
        <mxCell id="nF-iXHHiCRlv0W8M6ZpC-23" value="&lt;font style=&quot;font-size: 16px;&quot;&gt;Login&lt;/font&gt;" style="text;html=1;strokeColor=none;fillColor=none;align=center;verticalAlign=middle;whiteSpace=wrap;rounded=0;" parent="1" vertex="1">
          <mxGeometry x="378" y="1150" width="95" height="30" as="geometry" />
        </mxCell>
        <mxCell id="nF-iXHHiCRlv0W8M6ZpC-24" value="text input" style="rounded=0;whiteSpace=wrap;html=1;" parent="1" vertex="1">
          <mxGeometry x="338" y="1200" width="280" height="30" as="geometry" />
        </mxCell>
        <mxCell id="nF-iXHHiCRlv0W8M6ZpC-25" value="Username/Email:" style="text;html=1;strokeColor=none;fillColor=none;align=left;verticalAlign=middle;whiteSpace=wrap;rounded=0;" parent="1" vertex="1">
          <mxGeometry x="233" y="1200" width="105" height="30" as="geometry" />
        </mxCell>
        <mxCell id="DDzEvoenvucKNVs8Jguf-3" value="Password" style="text;html=1;strokeColor=none;fillColor=none;align=left;verticalAlign=middle;whiteSpace=wrap;rounded=0;" parent="1" vertex="1">
          <mxGeometry x="233" y="1240" width="105" height="30" as="geometry" />
        </mxCell>
        <mxCell id="DDzEvoenvucKNVs8Jguf-4" value="text input" style="rounded=0;whiteSpace=wrap;html=1;" parent="1" vertex="1">
          <mxGeometry x="338" y="1240" width="280" height="30" as="geometry" />
        </mxCell>
        <mxCell id="DDzEvoenvucKNVs8Jguf-5" value="Submit" style="rounded=0;whiteSpace=wrap;html=1;" parent="1" vertex="1">
          <mxGeometry x="448" y="1300" width="170" height="50" as="geometry" />
        </mxCell>
        <mxCell id="DDzEvoenvucKNVs8Jguf-6" value="Cancel" style="rounded=0;whiteSpace=wrap;html=1;" parent="1" vertex="1">
          <mxGeometry x="233" y="1300" width="170" height="50" as="geometry" />
        </mxCell>
        <mxCell id="DDzEvoenvucKNVs8Jguf-8" value="Home/Landing Page" style="text;html=1;align=center;verticalAlign=middle;resizable=0;points=[];autosize=1;strokeColor=none;fillColor=none;" parent="1" vertex="1">
          <mxGeometry x="40" y="10" width="130" height="30" as="geometry" />
        </mxCell>
        <mxCell id="DDzEvoenvucKNVs8Jguf-9" value="Login Page - Default" style="text;html=1;align=center;verticalAlign=middle;resizable=0;points=[];autosize=1;strokeColor=none;fillColor=none;" parent="1" vertex="1">
          <mxGeometry x="40" y="1050" width="130" height="30" as="geometry" />
        </mxCell>
        <mxCell id="DDzEvoenvucKNVs8Jguf-15" value="" style="rounded=0;whiteSpace=wrap;html=1;" parent="1" vertex="1">
          <mxGeometry x="880" y="40" width="800" height="450" as="geometry" />
        </mxCell>
        <mxCell id="DDzEvoenvucKNVs8Jguf-18" value="User Dashboard - Successful Login (planned)" style="text;html=1;align=center;verticalAlign=middle;resizable=0;points=[];autosize=1;strokeColor=none;fillColor=none;" parent="1" vertex="1">
          <mxGeometry x="880" y="10" width="270" height="30" as="geometry" />
        </mxCell>
        <mxCell id="DDzEvoenvucKNVs8Jguf-19" value="Welcome &amp;lt;username&amp;gt;" style="text;html=1;align=center;verticalAlign=middle;resizable=0;points=[];autosize=1;strokeColor=none;fillColor=none;" parent="1" vertex="1">
          <mxGeometry x="890" y="100" width="140" height="30" as="geometry" />
        </mxCell>
        <mxCell id="DDzEvoenvucKNVs8Jguf-32" value="" style="rounded=0;whiteSpace=wrap;html=1;" parent="1" vertex="1">
          <mxGeometry x="880" y="1080" width="800" height="450" as="geometry" />
        </mxCell>
        <mxCell id="DDzEvoenvucKNVs8Jguf-33" value="&lt;font style=&quot;font-size: 16px;&quot;&gt;Login&lt;/font&gt;" style="text;html=1;strokeColor=none;fillColor=none;align=center;verticalAlign=middle;whiteSpace=wrap;rounded=0;" parent="1" vertex="1">
          <mxGeometry x="1218" y="1160" width="95" height="30" as="geometry" />
        </mxCell>
        <mxCell id="DDzEvoenvucKNVs8Jguf-34" value="text input" style="rounded=0;whiteSpace=wrap;html=1;" parent="1" vertex="1">
          <mxGeometry x="1178" y="1210" width="280" height="30" as="geometry" />
        </mxCell>
        <mxCell id="DDzEvoenvucKNVs8Jguf-35" value="Username/Email:" style="text;html=1;strokeColor=none;fillColor=none;align=left;verticalAlign=middle;whiteSpace=wrap;rounded=0;" parent="1" vertex="1">
          <mxGeometry x="1073" y="1210" width="105" height="30" as="geometry" />
        </mxCell>
        <mxCell id="DDzEvoenvucKNVs8Jguf-36" value="Password" style="text;html=1;strokeColor=none;fillColor=none;align=left;verticalAlign=middle;whiteSpace=wrap;rounded=0;" parent="1" vertex="1">
          <mxGeometry x="1073" y="1250" width="105" height="30" as="geometry" />
        </mxCell>
        <mxCell id="DDzEvoenvucKNVs8Jguf-37" value="text input" style="rounded=0;whiteSpace=wrap;html=1;" parent="1" vertex="1">
          <mxGeometry x="1178" y="1250" width="280" height="30" as="geometry" />
        </mxCell>
        <mxCell id="DDzEvoenvucKNVs8Jguf-38" value="Submit" style="rounded=0;whiteSpace=wrap;html=1;" parent="1" vertex="1">
          <mxGeometry x="1288" y="1310" width="170" height="50" as="geometry" />
        </mxCell>
        <mxCell id="DDzEvoenvucKNVs8Jguf-39" value="Cancel" style="rounded=0;whiteSpace=wrap;html=1;" parent="1" vertex="1">
          <mxGeometry x="1073" y="1310" width="170" height="50" as="geometry" />
        </mxCell>
        <mxCell id="DDzEvoenvucKNVs8Jguf-40" value="Login Page - Error" style="text;html=1;align=center;verticalAlign=middle;resizable=0;points=[];autosize=1;strokeColor=none;fillColor=none;" parent="1" vertex="1">
          <mxGeometry x="880" y="1050" width="120" height="30" as="geometry" />
        </mxCell>
        <mxCell id="DDzEvoenvucKNVs8Jguf-41" value="ERROR: &amp;lt;error message&amp;gt;" style="text;html=1;align=center;verticalAlign=middle;resizable=0;points=[];autosize=1;strokeColor=none;fillColor=none;" parent="1" vertex="1">
          <mxGeometry x="1185.5" y="1390" width="160" height="30" as="geometry" />
        </mxCell>
        <mxCell id="DDzEvoenvucKNVs8Jguf-42" value="" style="rounded=0;whiteSpace=wrap;html=1;" parent="1" vertex="1">
          <mxGeometry x="40" y="560" width="800" height="450" as="geometry" />
        </mxCell>
        <mxCell id="DDzEvoenvucKNVs8Jguf-43" value="&lt;font style=&quot;font-size: 16px;&quot;&gt;Register New User&lt;/font&gt;" style="text;html=1;strokeColor=none;fillColor=none;align=center;verticalAlign=middle;whiteSpace=wrap;rounded=0;" parent="1" vertex="1">
          <mxGeometry x="364" y="630" width="152" height="30" as="geometry" />
        </mxCell>
        <mxCell id="DDzEvoenvucKNVs8Jguf-44" value="text input" style="rounded=0;whiteSpace=wrap;html=1;" parent="1" vertex="1">
          <mxGeometry x="338" y="670" width="280" height="30" as="geometry" />
        </mxCell>
        <mxCell id="DDzEvoenvucKNVs8Jguf-45" value="Email Address:" style="text;html=1;strokeColor=none;fillColor=none;align=left;verticalAlign=middle;whiteSpace=wrap;rounded=0;" parent="1" vertex="1">
          <mxGeometry x="233" y="670" width="105" height="30" as="geometry" />
        </mxCell>
        <mxCell id="DDzEvoenvucKNVs8Jguf-46" value="Password:" style="text;html=1;strokeColor=none;fillColor=none;align=left;verticalAlign=middle;whiteSpace=wrap;rounded=0;" parent="1" vertex="1">
          <mxGeometry x="233" y="750" width="105" height="30" as="geometry" />
        </mxCell>
        <mxCell id="DDzEvoenvucKNVs8Jguf-47" value="text input" style="rounded=0;whiteSpace=wrap;html=1;" parent="1" vertex="1">
          <mxGeometry x="338" y="750" width="280" height="30" as="geometry" />
        </mxCell>
        <mxCell id="DDzEvoenvucKNVs8Jguf-48" value="Submit" style="rounded=0;whiteSpace=wrap;html=1;" parent="1" vertex="1">
          <mxGeometry x="448" y="840" width="170" height="50" as="geometry" />
        </mxCell>
        <mxCell id="DDzEvoenvucKNVs8Jguf-49" value="Cancel" style="rounded=0;whiteSpace=wrap;html=1;" parent="1" vertex="1">
          <mxGeometry x="233" y="840" width="170" height="50" as="geometry" />
        </mxCell>
        <mxCell id="DDzEvoenvucKNVs8Jguf-50" value="Registration Page - Default" style="text;html=1;align=center;verticalAlign=middle;resizable=0;points=[];autosize=1;strokeColor=none;fillColor=none;" parent="1" vertex="1">
          <mxGeometry x="40" y="530" width="170" height="30" as="geometry" />
        </mxCell>
        <mxCell id="DDzEvoenvucKNVs8Jguf-52" value="Confirm Password:" style="text;html=1;strokeColor=none;fillColor=none;align=left;verticalAlign=middle;whiteSpace=wrap;rounded=0;" parent="1" vertex="1">
          <mxGeometry x="233" y="790" width="105" height="30" as="geometry" />
        </mxCell>
        <mxCell id="DDzEvoenvucKNVs8Jguf-53" value="text input" style="rounded=0;whiteSpace=wrap;html=1;" parent="1" vertex="1">
          <mxGeometry x="338" y="790" width="280" height="30" as="geometry" />
        </mxCell>
        <mxCell id="DDzEvoenvucKNVs8Jguf-63" value="Registration Page - Error" style="text;html=1;align=center;verticalAlign=middle;resizable=0;points=[];autosize=1;strokeColor=none;fillColor=none;" parent="1" vertex="1">
          <mxGeometry x="880" y="530" width="160" height="30" as="geometry" />
        </mxCell>
        <mxCell id="DDzEvoenvucKNVs8Jguf-68" value="Username:" style="text;html=1;strokeColor=none;fillColor=none;align=left;verticalAlign=middle;whiteSpace=wrap;rounded=0;" parent="1" vertex="1">
          <mxGeometry x="233" y="710" width="105" height="30" as="geometry" />
        </mxCell>
        <mxCell id="DDzEvoenvucKNVs8Jguf-69" value="text input" style="rounded=0;whiteSpace=wrap;html=1;" parent="1" vertex="1">
          <mxGeometry x="338" y="710" width="280" height="30" as="geometry" />
        </mxCell>
        <mxCell id="DDzEvoenvucKNVs8Jguf-70" value="" style="rounded=0;whiteSpace=wrap;html=1;" parent="1" vertex="1">
          <mxGeometry x="880" y="560" width="800" height="450" as="geometry" />
        </mxCell>
        <mxCell id="DDzEvoenvucKNVs8Jguf-71" value="&lt;font style=&quot;font-size: 16px;&quot;&gt;Register New User&lt;/font&gt;" style="text;html=1;strokeColor=none;fillColor=none;align=center;verticalAlign=middle;whiteSpace=wrap;rounded=0;" parent="1" vertex="1">
          <mxGeometry x="1204" y="630" width="152" height="30" as="geometry" />
        </mxCell>
        <mxCell id="DDzEvoenvucKNVs8Jguf-72" value="text input" style="rounded=0;whiteSpace=wrap;html=1;" parent="1" vertex="1">
          <mxGeometry x="1178" y="670" width="280" height="30" as="geometry" />
        </mxCell>
        <mxCell id="DDzEvoenvucKNVs8Jguf-73" value="Email Address:" style="text;html=1;strokeColor=none;fillColor=none;align=left;verticalAlign=middle;whiteSpace=wrap;rounded=0;" parent="1" vertex="1">
          <mxGeometry x="1073" y="670" width="105" height="30" as="geometry" />
        </mxCell>
        <mxCell id="DDzEvoenvucKNVs8Jguf-74" value="Password:" style="text;html=1;strokeColor=none;fillColor=none;align=left;verticalAlign=middle;whiteSpace=wrap;rounded=0;" parent="1" vertex="1">
          <mxGeometry x="1073" y="750" width="105" height="30" as="geometry" />
        </mxCell>
        <mxCell id="DDzEvoenvucKNVs8Jguf-75" value="text input" style="rounded=0;whiteSpace=wrap;html=1;" parent="1" vertex="1">
          <mxGeometry x="1178" y="750" width="280" height="30" as="geometry" />
        </mxCell>
        <mxCell id="DDzEvoenvucKNVs8Jguf-76" value="Submit" style="rounded=0;whiteSpace=wrap;html=1;" parent="1" vertex="1">
          <mxGeometry x="1288" y="840" width="170" height="50" as="geometry" />
        </mxCell>
        <mxCell id="DDzEvoenvucKNVs8Jguf-77" value="Cancel" style="rounded=0;whiteSpace=wrap;html=1;" parent="1" vertex="1">
          <mxGeometry x="1073" y="840" width="170" height="50" as="geometry" />
        </mxCell>
        <mxCell id="DDzEvoenvucKNVs8Jguf-79" value="Confirm Password:" style="text;html=1;strokeColor=none;fillColor=none;align=left;verticalAlign=middle;whiteSpace=wrap;rounded=0;" parent="1" vertex="1">
          <mxGeometry x="1073" y="790" width="105" height="30" as="geometry" />
        </mxCell>
        <mxCell id="DDzEvoenvucKNVs8Jguf-80" value="text input" style="rounded=0;whiteSpace=wrap;html=1;" parent="1" vertex="1">
          <mxGeometry x="1178" y="790" width="280" height="30" as="geometry" />
        </mxCell>
        <mxCell id="DDzEvoenvucKNVs8Jguf-81" value="Username:" style="text;html=1;strokeColor=none;fillColor=none;align=left;verticalAlign=middle;whiteSpace=wrap;rounded=0;" parent="1" vertex="1">
          <mxGeometry x="1073" y="710" width="105" height="30" as="geometry" />
        </mxCell>
        <mxCell id="DDzEvoenvucKNVs8Jguf-82" value="text input" style="rounded=0;whiteSpace=wrap;html=1;" parent="1" vertex="1">
          <mxGeometry x="1178" y="710" width="280" height="30" as="geometry" />
        </mxCell>
        <mxCell id="DDzEvoenvucKNVs8Jguf-83" value="ERROR: &amp;lt;error message&amp;gt;" style="text;html=1;align=center;verticalAlign=middle;resizable=0;points=[];autosize=1;strokeColor=none;fillColor=none;" parent="1" vertex="1">
          <mxGeometry x="1185.5" y="920" width="160" height="30" as="geometry" />
        </mxCell>
        <mxCell id="ypEfQas9TFvf1LkHNegp-1" value="Navbar" style="rounded=0;whiteSpace=wrap;html=1;" parent="1" vertex="1">
          <mxGeometry x="40" y="40" width="800" height="50" as="geometry" />
        </mxCell>
        <mxCell id="ypEfQas9TFvf1LkHNegp-2" value="CST-350" style="text;html=1;align=center;verticalAlign=middle;resizable=0;points=[];autosize=1;strokeColor=none;fillColor=none;" parent="1" vertex="1">
          <mxGeometry x="50" y="50" width="70" height="30" as="geometry" />
        </mxCell>
        <mxCell id="ypEfQas9TFvf1LkHNegp-3" value="Navbar" style="rounded=0;whiteSpace=wrap;html=1;" parent="1" vertex="1">
          <mxGeometry x="40" y="1080" width="800" height="50" as="geometry" />
        </mxCell>
        <mxCell id="ypEfQas9TFvf1LkHNegp-5" value="Navbar" style="rounded=0;whiteSpace=wrap;html=1;" parent="1" vertex="1">
          <mxGeometry x="880" y="40" width="800" height="50" as="geometry" />
        </mxCell>
        <mxCell id="ypEfQas9TFvf1LkHNegp-7" value="Navbar" style="rounded=0;whiteSpace=wrap;html=1;" parent="1" vertex="1">
          <mxGeometry x="880" y="1080" width="800" height="50" as="geometry" />
        </mxCell>
        <mxCell id="ypEfQas9TFvf1LkHNegp-9" value="Navbar" style="rounded=0;whiteSpace=wrap;html=1;" parent="1" vertex="1">
          <mxGeometry x="40" y="560" width="800" height="50" as="geometry" />
        </mxCell>
        <mxCell id="ypEfQas9TFvf1LkHNegp-11" value="Navbar" style="rounded=0;whiteSpace=wrap;html=1;" parent="1" vertex="1">
          <mxGeometry x="880" y="560" width="800" height="50" as="geometry" />
        </mxCell>
        <mxCell id="djR8gq2mdcgwIwiNso4Z-1" value="REGISTER" style="rounded=0;whiteSpace=wrap;html=1;" parent="1" vertex="1">
          <mxGeometry x="355" y="270" width="170" height="50" as="geometry" />
        </mxCell>
        <mxCell id="joO696_4VvRe2etLfbnj-2" value="Need to Register a New User?" style="text;html=1;align=left;verticalAlign=middle;resizable=0;points=[];autosize=1;strokeColor=none;fillColor=none;" parent="1" vertex="1">
          <mxGeometry x="233" y="1350" width="190" height="30" as="geometry" />
        </mxCell>
        <mxCell id="joO696_4VvRe2etLfbnj-3" value="Need to Register a New User?" style="text;html=1;align=left;verticalAlign=middle;resizable=0;points=[];autosize=1;strokeColor=none;fillColor=none;" parent="1" vertex="1">
          <mxGeometry x="1073" y="1360" width="190" height="30" as="geometry" />
        </mxCell>
        <mxCell id="joO696_4VvRe2etLfbnj-4" value="Already Registered? Login Here" style="text;html=1;align=left;verticalAlign=middle;resizable=0;points=[];autosize=1;strokeColor=none;fillColor=none;" parent="1" vertex="1">
          <mxGeometry x="233" y="890" width="190" height="30" as="geometry" />
        </mxCell>
        <mxCell id="joO696_4VvRe2etLfbnj-5" value="Already Registered? Login Here" style="text;html=1;align=left;verticalAlign=middle;resizable=0;points=[];autosize=1;strokeColor=none;fillColor=none;" parent="1" vertex="1">
          <mxGeometry x="1073" y="890" width="190" height="30" as="geometry" />
        </mxCell>
        <mxCell id="epAWxI0zBDAU6cTDsfpr-1" value="DASHBOARD" style="text;html=1;align=center;verticalAlign=middle;resizable=0;points=[];autosize=1;strokeColor=none;fillColor=none;" parent="1" vertex="1">
          <mxGeometry x="1230" y="130" width="100" height="30" as="geometry" />
        </mxCell>
        <mxCell id="MztH8VrNpYl4-zx_21cj-1" value="Play Minesweeper" style="swimlane;whiteSpace=wrap;html=1;" vertex="1" parent="1">
          <mxGeometry x="895" y="170" width="130" height="130" as="geometry" />
        </mxCell>
        <mxCell id="MztH8VrNpYl4-zx_21cj-2" value="QUIT" style="rounded=1;whiteSpace=wrap;html=1;" vertex="1" parent="MztH8VrNpYl4-zx_21cj-1">
          <mxGeometry x="70" y="100" width="50" height="20" as="geometry" />
        </mxCell>
        <mxCell id="MztH8VrNpYl4-zx_21cj-3" value="PLAY" style="rounded=1;whiteSpace=wrap;html=1;" vertex="1" parent="MztH8VrNpYl4-zx_21cj-1">
          <mxGeometry x="10" y="100" width="50" height="20" as="geometry" />
        </mxCell>
        <mxCell id="MztH8VrNpYl4-zx_21cj-142" value="" style="rounded=0;whiteSpace=wrap;html=1;" vertex="1" parent="1">
          <mxGeometry x="1720" y="40" width="800" height="450" as="geometry" />
        </mxCell>
        <mxCell id="MztH8VrNpYl4-zx_21cj-144" value="Welcome &amp;lt;username&amp;gt;" style="text;html=1;align=center;verticalAlign=middle;resizable=0;points=[];autosize=1;strokeColor=none;fillColor=none;" vertex="1" parent="1">
          <mxGeometry x="1730" y="100" width="140" height="30" as="geometry" />
        </mxCell>
        <mxCell id="MztH8VrNpYl4-zx_21cj-145" value="Navbar" style="rounded=0;whiteSpace=wrap;html=1;" vertex="1" parent="1">
          <mxGeometry x="1720" y="40" width="800" height="50" as="geometry" />
        </mxCell>
        <mxCell id="MztH8VrNpYl4-zx_21cj-147" value="MINESWEEPER" style="text;html=1;align=center;verticalAlign=middle;resizable=0;points=[];autosize=1;strokeColor=none;fillColor=none;" vertex="1" parent="1">
          <mxGeometry x="2065" y="130" width="110" height="30" as="geometry" />
        </mxCell>
        <mxCell id="MztH8VrNpYl4-zx_21cj-148" value="Play Minesweeper" style="swimlane;whiteSpace=wrap;html=1;" vertex="1" parent="1">
          <mxGeometry x="1735" y="170" width="130" height="130" as="geometry" />
        </mxCell>
        <mxCell id="MztH8VrNpYl4-zx_21cj-149" value="QUIT" style="rounded=1;whiteSpace=wrap;html=1;" vertex="1" parent="MztH8VrNpYl4-zx_21cj-148">
          <mxGeometry x="70" y="100" width="50" height="20" as="geometry" />
        </mxCell>
        <mxCell id="MztH8VrNpYl4-zx_21cj-150" value="PLAY" style="rounded=1;whiteSpace=wrap;html=1;" vertex="1" parent="MztH8VrNpYl4-zx_21cj-148">
          <mxGeometry x="10" y="100" width="50" height="20" as="geometry" />
        </mxCell>
        <mxCell id="MztH8VrNpYl4-zx_21cj-151" value="" style="whiteSpace=wrap;html=1;aspect=fixed;" vertex="1" parent="1">
          <mxGeometry x="1995" y="170" width="30" height="30" as="geometry" />
        </mxCell>
        <mxCell id="MztH8VrNpYl4-zx_21cj-152" value="" style="whiteSpace=wrap;html=1;aspect=fixed;" vertex="1" parent="1">
          <mxGeometry x="2025" y="170" width="30" height="30" as="geometry" />
        </mxCell>
        <mxCell id="MztH8VrNpYl4-zx_21cj-153" value="" style="whiteSpace=wrap;html=1;aspect=fixed;" vertex="1" parent="1">
          <mxGeometry x="2055" y="170" width="30" height="30" as="geometry" />
        </mxCell>
        <mxCell id="MztH8VrNpYl4-zx_21cj-154" value="" style="whiteSpace=wrap;html=1;aspect=fixed;" vertex="1" parent="1">
          <mxGeometry x="2085" y="170" width="30" height="30" as="geometry" />
        </mxCell>
        <mxCell id="MztH8VrNpYl4-zx_21cj-155" value="" style="whiteSpace=wrap;html=1;aspect=fixed;" vertex="1" parent="1">
          <mxGeometry x="2115" y="170" width="30" height="30" as="geometry" />
        </mxCell>
        <mxCell id="MztH8VrNpYl4-zx_21cj-156" value="" style="whiteSpace=wrap;html=1;aspect=fixed;" vertex="1" parent="1">
          <mxGeometry x="2145" y="170" width="30" height="30" as="geometry" />
        </mxCell>
        <mxCell id="MztH8VrNpYl4-zx_21cj-157" value="" style="whiteSpace=wrap;html=1;aspect=fixed;" vertex="1" parent="1">
          <mxGeometry x="2175" y="170" width="30" height="30" as="geometry" />
        </mxCell>
        <mxCell id="MztH8VrNpYl4-zx_21cj-158" value="" style="whiteSpace=wrap;html=1;aspect=fixed;" vertex="1" parent="1">
          <mxGeometry x="2205" y="170" width="30" height="30" as="geometry" />
        </mxCell>
        <mxCell id="MztH8VrNpYl4-zx_21cj-159" value="" style="whiteSpace=wrap;html=1;aspect=fixed;" vertex="1" parent="1">
          <mxGeometry x="1995" y="200" width="30" height="30" as="geometry" />
        </mxCell>
        <mxCell id="MztH8VrNpYl4-zx_21cj-160" value="" style="whiteSpace=wrap;html=1;aspect=fixed;" vertex="1" parent="1">
          <mxGeometry x="2025" y="200" width="30" height="30" as="geometry" />
        </mxCell>
        <mxCell id="MztH8VrNpYl4-zx_21cj-161" value="" style="whiteSpace=wrap;html=1;aspect=fixed;" vertex="1" parent="1">
          <mxGeometry x="2055" y="200" width="30" height="30" as="geometry" />
        </mxCell>
        <mxCell id="MztH8VrNpYl4-zx_21cj-162" value="" style="whiteSpace=wrap;html=1;aspect=fixed;" vertex="1" parent="1">
          <mxGeometry x="2085" y="200" width="30" height="30" as="geometry" />
        </mxCell>
        <mxCell id="MztH8VrNpYl4-zx_21cj-163" value="" style="whiteSpace=wrap;html=1;aspect=fixed;" vertex="1" parent="1">
          <mxGeometry x="2115" y="200" width="30" height="30" as="geometry" />
        </mxCell>
        <mxCell id="MztH8VrNpYl4-zx_21cj-164" value="" style="whiteSpace=wrap;html=1;aspect=fixed;" vertex="1" parent="1">
          <mxGeometry x="2145" y="200" width="30" height="30" as="geometry" />
        </mxCell>
        <mxCell id="MztH8VrNpYl4-zx_21cj-165" value="" style="whiteSpace=wrap;html=1;aspect=fixed;" vertex="1" parent="1">
          <mxGeometry x="2175" y="200" width="30" height="30" as="geometry" />
        </mxCell>
        <mxCell id="MztH8VrNpYl4-zx_21cj-166" value="" style="whiteSpace=wrap;html=1;aspect=fixed;" vertex="1" parent="1">
          <mxGeometry x="2205" y="200" width="30" height="30" as="geometry" />
        </mxCell>
        <mxCell id="MztH8VrNpYl4-zx_21cj-167" value="" style="whiteSpace=wrap;html=1;aspect=fixed;" vertex="1" parent="1">
          <mxGeometry x="1995" y="230" width="30" height="30" as="geometry" />
        </mxCell>
        <mxCell id="MztH8VrNpYl4-zx_21cj-168" value="" style="whiteSpace=wrap;html=1;aspect=fixed;" vertex="1" parent="1">
          <mxGeometry x="2025" y="230" width="30" height="30" as="geometry" />
        </mxCell>
        <mxCell id="MztH8VrNpYl4-zx_21cj-169" value="" style="whiteSpace=wrap;html=1;aspect=fixed;" vertex="1" parent="1">
          <mxGeometry x="2055" y="230" width="30" height="30" as="geometry" />
        </mxCell>
        <mxCell id="MztH8VrNpYl4-zx_21cj-170" value="" style="whiteSpace=wrap;html=1;aspect=fixed;" vertex="1" parent="1">
          <mxGeometry x="2085" y="230" width="30" height="30" as="geometry" />
        </mxCell>
        <mxCell id="MztH8VrNpYl4-zx_21cj-171" value="" style="whiteSpace=wrap;html=1;aspect=fixed;" vertex="1" parent="1">
          <mxGeometry x="2115" y="230" width="30" height="30" as="geometry" />
        </mxCell>
        <mxCell id="MztH8VrNpYl4-zx_21cj-172" value="" style="whiteSpace=wrap;html=1;aspect=fixed;" vertex="1" parent="1">
          <mxGeometry x="2145" y="230" width="30" height="30" as="geometry" />
        </mxCell>
        <mxCell id="MztH8VrNpYl4-zx_21cj-173" value="" style="whiteSpace=wrap;html=1;aspect=fixed;" vertex="1" parent="1">
          <mxGeometry x="2175" y="230" width="30" height="30" as="geometry" />
        </mxCell>
        <mxCell id="MztH8VrNpYl4-zx_21cj-174" value="" style="whiteSpace=wrap;html=1;aspect=fixed;" vertex="1" parent="1">
          <mxGeometry x="2205" y="230" width="30" height="30" as="geometry" />
        </mxCell>
        <mxCell id="MztH8VrNpYl4-zx_21cj-175" value="" style="whiteSpace=wrap;html=1;aspect=fixed;" vertex="1" parent="1">
          <mxGeometry x="1995" y="260" width="30" height="30" as="geometry" />
        </mxCell>
        <mxCell id="MztH8VrNpYl4-zx_21cj-176" value="" style="whiteSpace=wrap;html=1;aspect=fixed;" vertex="1" parent="1">
          <mxGeometry x="2025" y="260" width="30" height="30" as="geometry" />
        </mxCell>
        <mxCell id="MztH8VrNpYl4-zx_21cj-177" value="" style="whiteSpace=wrap;html=1;aspect=fixed;" vertex="1" parent="1">
          <mxGeometry x="2055" y="260" width="30" height="30" as="geometry" />
        </mxCell>
        <mxCell id="MztH8VrNpYl4-zx_21cj-178" value="" style="whiteSpace=wrap;html=1;aspect=fixed;" vertex="1" parent="1">
          <mxGeometry x="2085" y="260" width="30" height="30" as="geometry" />
        </mxCell>
        <mxCell id="MztH8VrNpYl4-zx_21cj-179" value="" style="whiteSpace=wrap;html=1;aspect=fixed;" vertex="1" parent="1">
          <mxGeometry x="2115" y="260" width="30" height="30" as="geometry" />
        </mxCell>
        <mxCell id="MztH8VrNpYl4-zx_21cj-180" value="" style="whiteSpace=wrap;html=1;aspect=fixed;" vertex="1" parent="1">
          <mxGeometry x="2145" y="260" width="30" height="30" as="geometry" />
        </mxCell>
        <mxCell id="MztH8VrNpYl4-zx_21cj-181" value="" style="whiteSpace=wrap;html=1;aspect=fixed;" vertex="1" parent="1">
          <mxGeometry x="2175" y="260" width="30" height="30" as="geometry" />
        </mxCell>
        <mxCell id="MztH8VrNpYl4-zx_21cj-182" value="" style="whiteSpace=wrap;html=1;aspect=fixed;" vertex="1" parent="1">
          <mxGeometry x="2205" y="260" width="30" height="30" as="geometry" />
        </mxCell>
        <mxCell id="MztH8VrNpYl4-zx_21cj-183" value="" style="whiteSpace=wrap;html=1;aspect=fixed;" vertex="1" parent="1">
          <mxGeometry x="1995" y="290" width="30" height="30" as="geometry" />
        </mxCell>
        <mxCell id="MztH8VrNpYl4-zx_21cj-184" value="" style="whiteSpace=wrap;html=1;aspect=fixed;" vertex="1" parent="1">
          <mxGeometry x="2025" y="290" width="30" height="30" as="geometry" />
        </mxCell>
        <mxCell id="MztH8VrNpYl4-zx_21cj-185" value="" style="whiteSpace=wrap;html=1;aspect=fixed;" vertex="1" parent="1">
          <mxGeometry x="2055" y="290" width="30" height="30" as="geometry" />
        </mxCell>
        <mxCell id="MztH8VrNpYl4-zx_21cj-186" value="" style="whiteSpace=wrap;html=1;aspect=fixed;" vertex="1" parent="1">
          <mxGeometry x="2085" y="290" width="30" height="30" as="geometry" />
        </mxCell>
        <mxCell id="MztH8VrNpYl4-zx_21cj-187" value="" style="whiteSpace=wrap;html=1;aspect=fixed;" vertex="1" parent="1">
          <mxGeometry x="2115" y="290" width="30" height="30" as="geometry" />
        </mxCell>
        <mxCell id="MztH8VrNpYl4-zx_21cj-188" value="" style="whiteSpace=wrap;html=1;aspect=fixed;" vertex="1" parent="1">
          <mxGeometry x="2145" y="290" width="30" height="30" as="geometry" />
        </mxCell>
        <mxCell id="MztH8VrNpYl4-zx_21cj-189" value="" style="whiteSpace=wrap;html=1;aspect=fixed;" vertex="1" parent="1">
          <mxGeometry x="2175" y="290" width="30" height="30" as="geometry" />
        </mxCell>
        <mxCell id="MztH8VrNpYl4-zx_21cj-190" value="" style="whiteSpace=wrap;html=1;aspect=fixed;" vertex="1" parent="1">
          <mxGeometry x="2205" y="290" width="30" height="30" as="geometry" />
        </mxCell>
        <mxCell id="MztH8VrNpYl4-zx_21cj-191" value="" style="whiteSpace=wrap;html=1;aspect=fixed;" vertex="1" parent="1">
          <mxGeometry x="1995" y="320" width="30" height="30" as="geometry" />
        </mxCell>
        <mxCell id="MztH8VrNpYl4-zx_21cj-192" value="" style="whiteSpace=wrap;html=1;aspect=fixed;" vertex="1" parent="1">
          <mxGeometry x="2025" y="320" width="30" height="30" as="geometry" />
        </mxCell>
        <mxCell id="MztH8VrNpYl4-zx_21cj-193" value="" style="whiteSpace=wrap;html=1;aspect=fixed;" vertex="1" parent="1">
          <mxGeometry x="2055" y="320" width="30" height="30" as="geometry" />
        </mxCell>
        <mxCell id="MztH8VrNpYl4-zx_21cj-194" value="" style="whiteSpace=wrap;html=1;aspect=fixed;" vertex="1" parent="1">
          <mxGeometry x="2085" y="320" width="30" height="30" as="geometry" />
        </mxCell>
        <mxCell id="MztH8VrNpYl4-zx_21cj-195" value="" style="whiteSpace=wrap;html=1;aspect=fixed;" vertex="1" parent="1">
          <mxGeometry x="2115" y="320" width="30" height="30" as="geometry" />
        </mxCell>
        <mxCell id="MztH8VrNpYl4-zx_21cj-196" value="" style="whiteSpace=wrap;html=1;aspect=fixed;" vertex="1" parent="1">
          <mxGeometry x="2145" y="320" width="30" height="30" as="geometry" />
        </mxCell>
        <mxCell id="MztH8VrNpYl4-zx_21cj-197" value="" style="whiteSpace=wrap;html=1;aspect=fixed;" vertex="1" parent="1">
          <mxGeometry x="2175" y="320" width="30" height="30" as="geometry" />
        </mxCell>
        <mxCell id="MztH8VrNpYl4-zx_21cj-198" value="" style="whiteSpace=wrap;html=1;aspect=fixed;" vertex="1" parent="1">
          <mxGeometry x="2205" y="320" width="30" height="30" as="geometry" />
        </mxCell>
        <mxCell id="MztH8VrNpYl4-zx_21cj-199" value="" style="whiteSpace=wrap;html=1;aspect=fixed;" vertex="1" parent="1">
          <mxGeometry x="1995" y="350" width="30" height="30" as="geometry" />
        </mxCell>
        <mxCell id="MztH8VrNpYl4-zx_21cj-200" value="" style="whiteSpace=wrap;html=1;aspect=fixed;" vertex="1" parent="1">
          <mxGeometry x="2025" y="350" width="30" height="30" as="geometry" />
        </mxCell>
        <mxCell id="MztH8VrNpYl4-zx_21cj-201" value="" style="whiteSpace=wrap;html=1;aspect=fixed;" vertex="1" parent="1">
          <mxGeometry x="2055" y="350" width="30" height="30" as="geometry" />
        </mxCell>
        <mxCell id="MztH8VrNpYl4-zx_21cj-202" value="" style="whiteSpace=wrap;html=1;aspect=fixed;" vertex="1" parent="1">
          <mxGeometry x="2085" y="350" width="30" height="30" as="geometry" />
        </mxCell>
        <mxCell id="MztH8VrNpYl4-zx_21cj-203" value="" style="whiteSpace=wrap;html=1;aspect=fixed;" vertex="1" parent="1">
          <mxGeometry x="2115" y="350" width="30" height="30" as="geometry" />
        </mxCell>
        <mxCell id="MztH8VrNpYl4-zx_21cj-204" value="" style="whiteSpace=wrap;html=1;aspect=fixed;" vertex="1" parent="1">
          <mxGeometry x="2145" y="350" width="30" height="30" as="geometry" />
        </mxCell>
        <mxCell id="MztH8VrNpYl4-zx_21cj-205" value="" style="whiteSpace=wrap;html=1;aspect=fixed;" vertex="1" parent="1">
          <mxGeometry x="2175" y="350" width="30" height="30" as="geometry" />
        </mxCell>
        <mxCell id="MztH8VrNpYl4-zx_21cj-206" value="" style="whiteSpace=wrap;html=1;aspect=fixed;" vertex="1" parent="1">
          <mxGeometry x="2205" y="350" width="30" height="30" as="geometry" />
        </mxCell>
        <mxCell id="MztH8VrNpYl4-zx_21cj-207" value="" style="whiteSpace=wrap;html=1;aspect=fixed;" vertex="1" parent="1">
          <mxGeometry x="1995" y="380" width="30" height="30" as="geometry" />
        </mxCell>
        <mxCell id="MztH8VrNpYl4-zx_21cj-208" value="" style="whiteSpace=wrap;html=1;aspect=fixed;" vertex="1" parent="1">
          <mxGeometry x="2025" y="380" width="30" height="30" as="geometry" />
        </mxCell>
        <mxCell id="MztH8VrNpYl4-zx_21cj-209" value="" style="whiteSpace=wrap;html=1;aspect=fixed;" vertex="1" parent="1">
          <mxGeometry x="2055" y="380" width="30" height="30" as="geometry" />
        </mxCell>
        <mxCell id="MztH8VrNpYl4-zx_21cj-210" value="" style="whiteSpace=wrap;html=1;aspect=fixed;" vertex="1" parent="1">
          <mxGeometry x="2085" y="380" width="30" height="30" as="geometry" />
        </mxCell>
        <mxCell id="MztH8VrNpYl4-zx_21cj-211" value="" style="whiteSpace=wrap;html=1;aspect=fixed;" vertex="1" parent="1">
          <mxGeometry x="2115" y="380" width="30" height="30" as="geometry" />
        </mxCell>
        <mxCell id="MztH8VrNpYl4-zx_21cj-212" value="" style="whiteSpace=wrap;html=1;aspect=fixed;" vertex="1" parent="1">
          <mxGeometry x="2145" y="380" width="30" height="30" as="geometry" />
        </mxCell>
        <mxCell id="MztH8VrNpYl4-zx_21cj-213" value="" style="whiteSpace=wrap;html=1;aspect=fixed;" vertex="1" parent="1">
          <mxGeometry x="2175" y="380" width="30" height="30" as="geometry" />
        </mxCell>
        <mxCell id="MztH8VrNpYl4-zx_21cj-214" value="" style="whiteSpace=wrap;html=1;aspect=fixed;" vertex="1" parent="1">
          <mxGeometry x="2205" y="380" width="30" height="30" as="geometry" />
        </mxCell>
        <mxCell id="MztH8VrNpYl4-zx_21cj-215" value="CST-350" style="text;html=1;align=center;verticalAlign=middle;resizable=0;points=[];autosize=1;strokeColor=none;fillColor=none;" vertex="1" parent="1">
          <mxGeometry x="50" y="570" width="70" height="30" as="geometry" />
        </mxCell>
        <mxCell id="MztH8VrNpYl4-zx_21cj-216" value="CST-350" style="text;html=1;align=center;verticalAlign=middle;resizable=0;points=[];autosize=1;strokeColor=none;fillColor=none;" vertex="1" parent="1">
          <mxGeometry x="50" y="1090" width="70" height="30" as="geometry" />
        </mxCell>
        <mxCell id="MztH8VrNpYl4-zx_21cj-217" value="CST-350" style="text;html=1;align=center;verticalAlign=middle;resizable=0;points=[];autosize=1;strokeColor=none;fillColor=none;" vertex="1" parent="1">
          <mxGeometry x="890" y="1090" width="70" height="30" as="geometry" />
        </mxCell>
        <mxCell id="MztH8VrNpYl4-zx_21cj-218" value="CST-350" style="text;html=1;align=center;verticalAlign=middle;resizable=0;points=[];autosize=1;strokeColor=none;fillColor=none;" vertex="1" parent="1">
          <mxGeometry x="890" y="570" width="70" height="30" as="geometry" />
        </mxCell>
        <mxCell id="MztH8VrNpYl4-zx_21cj-219" value="CST-350" style="text;html=1;align=center;verticalAlign=middle;resizable=0;points=[];autosize=1;strokeColor=none;fillColor=none;" vertex="1" parent="1">
          <mxGeometry x="895" y="50" width="70" height="30" as="geometry" />
        </mxCell>
        <mxCell id="MztH8VrNpYl4-zx_21cj-220" value="CST-350" style="text;html=1;align=center;verticalAlign=middle;resizable=0;points=[];autosize=1;strokeColor=none;fillColor=none;" vertex="1" parent="1">
          <mxGeometry x="1730" y="50" width="70" height="30" as="geometry" />
        </mxCell>
        <mxCell id="MztH8VrNpYl4-zx_21cj-221" value="User Dashboard - Active Game (planned)" style="text;html=1;align=center;verticalAlign=middle;resizable=0;points=[];autosize=1;strokeColor=none;fillColor=none;" vertex="1" parent="1">
          <mxGeometry x="1720" y="10" width="240" height="30" as="geometry" />
        </mxCell>
      </root>
    </mxGraphModel>
  </diagram>
</mxfile>
